<?xml version="1.0" encoding="UTF-8" standalone="no"?>
<!-- Uploaded to: SVG Repo, www.svgrepo.com, Generator: SVG Repo Mixer Tools -->

<svg
   fill="#000000"
   height="32"
   width="32"
   version="1.1"
   id="Capa_1"
   viewBox="0 0 14.8 14.8"
   xml:space="preserve"
   xmlns="http://www.w3.org/2000/svg"
   xmlns:svg="http://www.w3.org/2000/svg"><defs
   id="defs1" />
<path
   d="m 3.3792644,12.04543 9.2038216,-0.0084 c 0.295536,-3.94e-4 0.534932,-0.239912 0.534932,-0.53549 V 1.6894801 C 13.118059,0.80354593 12.397447,0.08293418 11.511632,0.08293418 H 3.0114439 c -0.8857751,0 -1.6063867,0.72061175 -1.6063867,1.60670532 l 0.0031,11.1409315 c 0,1.082668 0.8840654,1.963592 1.9707085,1.963592 h 9.2036623 c 0.295775,0 0.535489,-0.239717 0.535489,-0.53549 v -0.283487 c 0,-0.295695 -0.239673,-0.535371 -0.53533,-0.535449 l -9.2039009,-0.0023 c -0.3346209,0 -0.6069376,-0.272158 -0.6069376,-0.606817 v -0.178284 c 3.97e-5,-0.334622 0.2723963,-0.606939 0.6074147,-0.606939 z"
   id="path1"
   style="stroke-width:0.0397601" />
<text
   xml:space="preserve"
   style="font-size:7.31751px;font-family:'DejaVu Sans';-inkscape-font-specification:'DejaVu Sans';fill:#ffffff;stroke:#ffffff;stroke-width:0.0130243;stroke-dashoffset:0.88063"
   x="2.3293967"
   y="6.6400247"
   id="text1"><tspan
     id="tspan1"
     style="stroke-width:0.0130243"
     x="2.3293967"
     y="6.6400247">KO</tspan></text><text
   xml:space="preserve"
   style="font-size:3.77131px;font-family:'DejaVu Sans';-inkscape-font-specification:'DejaVu Sans';fill:#ffffff;stroke:#ffffff;stroke-width:0.00671248;stroke-dashoffset:0.88063"
   x="1.9800203"
   y="10.701228"
   id="text2"><tspan
     id="tspan2"
     style="stroke-width:0.0067125"
     x="1.9800203"
     y="10.701228">DOCS</tspan></text></svg>
